<?xml version="1.0" encoding="UTF-8"?>
<!-- Created with Inkscape (http://www.inkscape.org/) -->
<svg width="680" height="226.67" version="1.1" viewBox="0 0 680 226.66667" xml:space="preserve" xmlns="http://www.w3.org/2000/svg" xmlns:cc="http://creativecommons.org/ns#" xmlns:dc="http://purl.org/dc/elements/1.1/" xmlns:rdf="http://www.w3.org/1999/02/22-rdf-syntax-ns#"><metadata><rdf:RDF><cc:Work rdf:about=""><dc:format>image/svg+xml</dc:format><dc:type rdf:resource="http://purl.org/dc/dcmitype/StillImage"/><dc:title/></cc:Work></rdf:RDF></metadata><defs><clipPath id="clipPath198"><path d="m0 0h510v170h-510z"/></clipPath></defs><g transform="matrix(1.3333 0 0 -1.3333 0 226.67)"><g clip-path="url(#clipPath198)"><path d="m0 170h510.25v-170.13h-510.25z" fill-opacity="0"/><g transform="matrix(7.874e-5 0 0 -7.874e-5 17 161.2)"><path d="m0 0 4.8661e6 1" fill="none" stroke="#fff" stroke-miterlimit="8" stroke-width="6350"/></g><g transform="matrix(7.874e-5 0 0 -7.874e-5 17 9.0236)"><path d="m0 0 4.8661e6 1" fill="none" stroke="#fff" stroke-miterlimit="8" stroke-width="6350"/></g><g transform="matrix(7.874e-5 0 0 -7.874e-5 210.05 170)"><path d="m0 0 1 1.9999e6" fill="none" stroke="#fff" stroke-miterlimit="8" stroke-width="6350"/></g><path d="m36.857 8.9994 60.637 151.88h13.613l-60.637-151.88z" fill="#a5a5a5"/><g transform="matrix(7.874e-5 0 0 -7.874e-5 36.857 160.87)"><path d="M 0,1928815 770090.3,0 H 942975 L 172884.8,1928815 Z" fill="none" stroke="#787878" stroke-miterlimit="8" stroke-width="12700"/></g><path d="m175.25 8.9994-60.652 151.88h-13.616l60.652-151.88z" fill="#a5a5a5"/><g transform="matrix(-7.874e-5 0 0 -7.874e-5 175.25 160.87)"><path d="M 0,1928815 770273.2,0 H 943200 L 172926.8,1928815 Z" fill="none" stroke="#787878" stroke-miterlimit="8" stroke-width="12700"/></g><path d="m23.466 140.62h165.18v-101.25h-165.18z" fill="#fff"/><g transform="matrix(7.874e-5 0 0 -7.874e-5 23.466 140.62)"><path d="M 0,0 H 2097741 V 1285875 H 0 Z" fill="none" stroke="#000" stroke-miterlimit="8" stroke-width="38100"/></g><g transform="matrix(.33333 0 0 .33333 37.054 72.069)"><text transform="scale(1,-1)" fill="#000000" font-family="Optima" font-size="162px"><tspan x="0 81 126.0036 234.009 333.0072" y="0">E:VRS</tspan></text>
</g><g transform="matrix(.33333 0 0 .33333 204.39 94.343)"><text transform="scale(1,-1)" fill="#000000" font-family="Futura" font-size="240px" font-weight="500"><tspan x="0 144.744 297.64801 404.23199 545.85602" y="0">Easel</tspan></text>
</g><g transform="matrix(.33333 0 0 .33333 209.23 65.649)"><text transform="scale(1,-1)" fill="#000000" font-family="Optima" font-size="108px"><tspan x="0 68.007599 98.010002 140.0112 200.01601 254.01601 284.0184 314.02081 368.02081 422.02081 452.02319 482.0256 542.0304" y="0">Visualization</tspan></text>
</g><g transform="matrix(.33333 0 0 .33333 209.23 37.649)"><text transform="scale(1,-1)" fill="#000000" font-family="Optima" font-size="108px"><tspan x="0 65.998802 119.9988 173.99879 234.0036 324 413.9964 467.9964 528.00122 588.00598 642.00598 672.00842 702.0108 762.01562" y="0">Recommendation</tspan></text>
</g><g transform="matrix(.33333 0 0 .33333 209.23 9.6492)"><text transform="scale(1,-1)" fill="#000000" font-family="Optima" font-size="108px"><tspan x="0 54 108 150.00121 180.0036 234.0036" y="0">System</tspan></text>
</g></g></g></svg>
